<svg width="1439" height="1931" viewBox="0 0 1439 1931" fill="none" xmlns="http://www.w3.org/2000/svg">
<path d="M66.4464 0H28C11.4315 0 -2 13.4315 -2 30V3810C-2 3826.57 11.4315 3840 28 3840H1409C1425.57 3840 1439 3826.57 1439 3810V30C1439 13.4315 1425.57 0 1409 0H1377.23C1368.19 0 1359.64 4.07191 1353.94 11.0847L1258.37 128.734C1252.68 135.747 1244.12 139.819 1235.09 139.819H708.987H200.241C190.736 139.819 181.793 135.314 176.135 127.676L90.5529 12.1429C84.8949 4.50479 75.9519 0 66.4464 0Z" fill="white"/>
</svg>
