<svg width="28" height="16" viewBox="0 0 28 16" fill="none" xmlns="http://www.w3.org/2000/svg">
<path d="M26.965 0.744835C26.4851 0.267772 25.836 0 25.1593 0C24.4827 0 23.8335 0.267772 23.3536 0.744835L14.1586 9.81218L5.09169 0.744835C4.6118 0.267772 3.96264 0 3.28598 0C2.60933 0 1.96017 0.267772 1.48028 0.744835C1.24021 0.98295 1.04967 1.26624 0.919636 1.57837C0.789603 1.8905 0.722656 2.22529 0.722656 2.56343C0.722656 2.90156 0.789603 3.23635 0.919636 3.54848C1.04967 3.86061 1.24021 4.1439 1.48028 4.38202L12.3401 15.2423C12.5782 15.4824 12.8615 15.673 13.1736 15.803C13.4857 15.9331 13.8205 16 14.1586 16C14.4967 16 14.8315 15.9331 15.1436 15.803C15.4557 15.673 15.739 15.4824 15.9771 15.2423L26.965 4.38202C27.2051 4.1439 27.3956 3.86061 27.5257 3.54848C27.6557 3.23635 27.7227 2.90156 27.7227 2.56343C27.7227 2.22529 27.6557 1.8905 27.5257 1.57837C27.3956 1.26624 27.2051 0.98295 26.965 0.744835Z" fill="black"/>
</svg>
