<svg width="364" height="157" viewBox="0 0 364 157" fill="none" xmlns="http://www.w3.org/2000/svg">
<g opacity="0.67">
<path d="M16.8096 16.5615V156.479" stroke="white" stroke-width="6" stroke-miterlimit="10"/>
<path d="M213.043 2H157.059V99.8158H213.043V2Z" stroke="white" stroke-width="4" stroke-miterlimit="10"/>
<path d="M303.383 81.0429C306.831 81.0429 309.627 78.2494 309.627 74.8034C309.627 71.3574 306.831 68.5638 303.383 68.5638C299.934 68.5638 297.139 71.3574 297.139 74.8034C297.139 78.2494 299.934 81.0429 303.383 81.0429Z" fill="white"/>
<path d="M67.4648 152.081V117.099L78.5638 115.658V151.59" stroke="white" stroke-width="4" stroke-miterlimit="10"/>
<path d="M303.383 42.2137C306.831 42.2137 309.627 39.4201 309.627 35.9741C309.627 32.5281 306.831 29.7346 303.383 29.7346C299.934 29.7346 297.139 32.5281 297.139 35.9741C297.139 39.4201 299.934 42.2137 303.383 42.2137Z" fill="white"/>
<path d="M342.939 39.4448H326.978V108.087H342.939V39.4448Z" stroke="white" stroke-width="4" stroke-miterlimit="10"/>
<path d="M309.446 57.508C310.238 54.1541 308.16 50.7936 304.803 50.002C301.447 49.2104 298.084 51.2876 297.292 54.6414C296.5 57.9953 298.578 61.3558 301.935 62.1474C305.291 62.9389 308.654 60.8618 309.446 57.508Z" fill="white"/>
<path d="M290.203 151.817V117.099L301.997 118.488V152.462" stroke="white" stroke-width="4" stroke-miterlimit="10"/>
<path d="M303.383 99.7691C306.831 99.7691 309.627 96.9756 309.627 93.5296C309.627 90.0836 306.831 87.29 303.383 87.29C299.934 87.29 297.139 90.0836 297.139 93.5296C297.139 96.9756 299.934 99.7691 303.383 99.7691Z" fill="white"/>
<path d="M66.0762 81.0429C69.5247 81.0429 72.3203 78.2494 72.3203 74.8034C72.3203 71.3574 69.5247 68.5638 66.0762 68.5638C62.6276 68.5638 59.832 71.3574 59.832 74.8034C59.832 78.2494 62.6276 81.0429 66.0762 81.0429Z" fill="white"/>
<path d="M72.7169 56.6446C73.2687 53.233 70.9483 50.0205 67.5343 49.4691C64.1202 48.9178 60.9053 51.2364 60.3536 54.6479C59.8018 58.0595 62.1221 61.272 65.5362 61.8234C68.9502 62.3748 72.1652 60.0561 72.7169 56.6446Z" fill="white"/>
<path d="M41.7905 39.4448H25.8291V108.087H41.7905V39.4448Z" stroke="white" stroke-width="4" stroke-miterlimit="10"/>
<path d="M66.0762 99.7691C69.5247 99.7691 72.3203 96.9756 72.3203 93.5296C72.3203 90.0836 69.5247 87.29 66.0762 87.29C62.6276 87.29 59.832 90.0836 59.832 93.5296C59.832 96.9756 62.6276 99.7691 66.0762 99.7691Z" fill="white"/>
<path d="M66.0762 42.2137C69.5247 42.2137 72.3203 39.4201 72.3203 35.9741C72.3203 32.5281 69.5247 29.7346 66.0762 29.7346C62.6276 29.7346 59.832 32.5281 59.832 35.9741C59.832 39.4201 62.6276 42.2137 66.0762 42.2137Z" fill="white"/>
<path d="M351.958 15.4222V156.627" stroke="white" stroke-width="6" stroke-miterlimit="10"/>
<path d="M51.5039 22.0087V152.666" stroke="white" stroke-width="4" stroke-miterlimit="10"/>
<path d="M317.264 21.4391V154.427" stroke="white" stroke-width="4" stroke-miterlimit="10"/>
<path d="M78.5684 24.8833L78.4289 112.711" stroke="white" stroke-width="4" stroke-miterlimit="10"/>
<path d="M290.2 24.8833L290.101 115.542" stroke="white" stroke-width="4" stroke-miterlimit="10"/>
<path d="M2.49805 11.8497C2.95862 12.476 3.90241 13.1135 5.29544 13.7359C19.188 20.149 78.0127 27.2298 156.328 28.5539" stroke="white" stroke-width="4" stroke-miterlimit="10"/>
<path d="M212.699 28.4483C288.791 26.7884 345.053 19.3078 358.862 13.487C360.199 12.9249 361.127 12.3779 361.66 11.8497" stroke="white" stroke-width="4" stroke-miterlimit="10"/>
<path d="M3.19629 2.83745C8.28521 9.66548 70.5339 18.0477 156.328 19.5416" stroke="white" stroke-width="4" stroke-miterlimit="10"/>
<path d="M213.017 19.4511C296.716 17.6328 356.058 8.68847 361.977 2.72055" stroke="white" stroke-width="4" stroke-miterlimit="10"/>
<path d="M6.19798 13.5661L2 12.1779L2.70218 3.16565L6.19798 5.24424V13.5661Z" fill="white"/>
<path d="M358.862 14.1773L363.057 12.6947L362.358 3.07133L358.862 5.29328V14.1773Z" fill="white"/>
<path d="M358.862 6.0515V5.00277L360.346 4.79907L358.93 6.0515H358.862Z" fill="white"/>
</g>
</svg>
