<svg width="20" height="20" viewBox="0 0 20 20" fill="none" xmlns="http://www.w3.org/2000/svg">
<path d="M18.5852 0.433228H1.17089C0.885475 0.433228 0.611748 0.546609 0.409928 0.748429C0.208108 0.950249 0.0947266 1.22398 0.0947266 1.50939V18.9237C0.0947266 19.065 0.122562 19.205 0.176645 19.3355C0.230727 19.4661 0.309997 19.5847 0.409928 19.6847C0.509859 19.7846 0.628495 19.8639 0.759061 19.918C0.889628 19.972 1.02957 19.9999 1.17089 19.9999H10.5433V12.4178H7.99965V9.4828H10.5433V7.28155C10.4906 6.76476 10.5516 6.24269 10.7221 5.75197C10.8925 5.26125 11.1682 4.81376 11.5299 4.44088C11.8916 4.068 12.3305 3.77877 12.8158 3.59347C13.3011 3.40817 13.8211 3.33129 14.3392 3.36822C15.1007 3.36354 15.8618 3.40274 16.6188 3.48562V6.12712H15.0632C13.8305 6.12712 13.5957 6.71412 13.5957 7.56527V9.45345H16.5307L16.1492 12.3884H13.5957V19.9999H18.5852C18.7265 19.9999 18.8665 19.972 18.997 19.918C19.1276 19.8639 19.2462 19.7846 19.3462 19.6847C19.4461 19.5847 19.5254 19.4661 19.5795 19.3355C19.6335 19.205 19.6614 19.065 19.6614 18.9237V1.50939C19.6614 1.36807 19.6335 1.22813 19.5795 1.09756C19.5254 0.966996 19.4461 0.84836 19.3462 0.748429C19.2462 0.648498 19.1276 0.569228 18.997 0.515146C18.8665 0.461063 18.7265 0.433228 18.5852 0.433228Z" fill="white"/>
</svg>
