<svg width="28" height="25" viewBox="0 0 28 25" fill="none" xmlns="http://www.w3.org/2000/svg">
<path d="M0 1.78571C0 1.31211 0.163888 0.85791 0.455612 0.523024C0.747335 0.188138 1.143 0 1.55556 0H26.4444C26.857 0 27.2527 0.188138 27.5444 0.523024C27.8361 0.85791 28 1.31211 28 1.78571C28 2.25932 27.8361 2.71352 27.5444 3.0484C27.2527 3.38329 26.857 3.57143 26.4444 3.57143H1.55556C1.143 3.57143 0.747335 3.38329 0.455612 3.0484C0.163888 2.71352 0 2.25932 0 1.78571ZM0 12.5C0 12.0264 0.163888 11.5722 0.455612 11.2373C0.747335 10.9024 1.143 10.7143 1.55556 10.7143H26.4444C26.857 10.7143 27.2527 10.9024 27.5444 11.2373C27.8361 11.5722 28 12.0264 28 12.5C28 12.9736 27.8361 13.4278 27.5444 13.7627C27.2527 14.0976 26.857 14.2857 26.4444 14.2857H1.55556C1.143 14.2857 0.747335 14.0976 0.455612 13.7627C0.163888 13.4278 0 12.9736 0 12.5ZM1.55556 21.4286C1.143 21.4286 0.747335 21.6167 0.455612 21.9516C0.163888 22.2865 0 22.7407 0 23.2143C0 23.6879 0.163888 24.1421 0.455612 24.477C0.747335 24.8119 1.143 25 1.55556 25H26.4444C26.857 25 27.2527 24.8119 27.5444 24.477C27.8361 24.1421 28 23.6879 28 23.2143C28 22.7407 27.8361 22.2865 27.5444 21.9516C27.2527 21.6167 26.857 21.4286 26.4444 21.4286H1.55556Z" fill="white"/>
</svg>
