<svg width="20" height="20" viewBox="0 0 20 20" fill="none" xmlns="http://www.w3.org/2000/svg">
<path d="M15.158 3.81838C14.9258 3.81838 14.6988 3.88723 14.5058 4.01623C14.3127 4.14523 14.1622 4.32859 14.0734 4.54311C13.9845 4.75763 13.9613 4.99368 14.0066 5.22141C14.0519 5.44915 14.1637 5.65833 14.3279 5.82252C14.4921 5.98671 14.7012 6.09852 14.929 6.14382C15.1567 6.18912 15.3928 6.16587 15.6073 6.07701C15.8218 5.98815 16.0052 5.83768 16.1342 5.64462C16.2632 5.45155 16.332 5.22457 16.332 4.99238C16.332 4.68101 16.2083 4.3824 15.9882 4.16224C15.768 3.94207 15.4694 3.81838 15.158 3.81838V3.81838ZM19.6583 6.18594C19.6393 5.37422 19.4873 4.57111 19.2083 3.8086C18.9595 3.15618 18.5724 2.56541 18.0734 2.07695C17.589 1.57548 16.9968 1.19075 16.3418 0.951866C15.5813 0.664393 14.7773 0.508887 13.9644 0.492049C12.9274 0.43335 12.5948 0.43335 9.93371 0.43335C7.27265 0.43335 6.94002 0.43335 5.90298 0.492049C5.09014 0.508887 4.28614 0.664393 3.52564 0.951866C2.87179 1.19317 2.28016 1.57757 1.79399 2.07695C1.29252 2.5614 0.907792 3.15354 0.668907 3.8086C0.381434 4.5691 0.225928 5.3731 0.209091 6.18594C0.150391 7.22298 0.150391 7.55561 0.150391 10.2167C0.150391 12.8777 0.150391 13.2104 0.209091 14.2474C0.225928 15.0602 0.381434 15.8642 0.668907 16.6247C0.907792 17.2798 1.29252 17.8719 1.79399 18.3564C2.28016 18.8558 2.87179 19.2402 3.52564 19.4815C4.28614 19.769 5.09014 19.9245 5.90298 19.9413C6.94002 20 7.27265 20 9.93371 20C12.5948 20 12.9274 20 13.9644 19.9413C14.7773 19.9245 15.5813 19.769 16.3418 19.4815C16.9968 19.2426 17.589 18.8579 18.0734 18.3564C18.5746 17.8698 18.9621 17.2785 19.2083 16.6247C19.4873 15.8622 19.6393 15.0591 19.6583 14.2474C19.6583 13.2104 19.717 12.8777 19.717 10.2167C19.717 7.55561 19.717 7.22298 19.6583 6.18594V6.18594ZM17.8973 14.13C17.8902 14.751 17.7777 15.3663 17.5647 15.9497C17.4085 16.3755 17.1576 16.7602 16.831 17.0748C16.5136 17.3981 16.1297 17.6485 15.7059 17.8085C15.1225 18.0216 14.5072 18.134 13.8862 18.1412C12.9078 18.1901 12.5459 18.1999 9.97285 18.1999C7.39983 18.1999 7.03785 18.1999 6.05952 18.1412C5.41469 18.1532 4.77261 18.0539 4.16155 17.8477C3.75631 17.6795 3.39 17.4297 3.08539 17.1139C2.76067 16.7996 2.51291 16.4146 2.36142 15.9888C2.12257 15.3971 1.99009 14.7678 1.97009 14.13C1.97009 13.1517 1.91139 12.7897 1.91139 10.2167C1.91139 7.64366 1.91139 7.28168 1.97009 6.30334C1.97447 5.66846 2.09037 5.03928 2.31251 4.44451C2.48474 4.03157 2.7491 3.66347 3.08539 3.36835C3.38262 3.03196 3.74996 2.76481 4.16155 2.58568C4.7579 2.37049 5.38642 2.25802 6.02038 2.25305C6.99872 2.25305 7.3607 2.19435 9.93371 2.19435C12.5067 2.19435 12.8687 2.19435 13.847 2.25305C14.4681 2.26017 15.0834 2.37265 15.6667 2.58568C16.1113 2.75068 16.5104 3.01893 16.831 3.36835C17.1516 3.66887 17.4021 4.03629 17.5647 4.44451C17.7821 5.04025 17.8947 5.66917 17.8973 6.30334C17.9463 7.28168 17.956 7.64366 17.956 10.2167C17.956 12.7897 17.9463 13.1517 17.8973 14.13ZM9.93371 5.19783C8.9415 5.19976 7.97212 5.49576 7.14806 6.04841C6.32401 6.60106 5.68225 7.38557 5.30389 8.30281C4.92552 9.22006 4.82753 10.2289 5.02228 11.2018C5.21704 12.1747 5.69581 13.0681 6.3981 13.769C7.10038 14.4699 7.99467 14.9469 8.96796 15.1398C9.94125 15.3326 10.9499 15.2327 11.8664 14.8525C12.7829 14.4724 13.5661 13.8291 14.1172 13.004C14.6682 12.1788 14.9623 11.2089 14.9623 10.2167C14.9636 9.5564 14.8344 8.90239 14.582 8.29225C14.3296 7.68211 13.9591 7.12789 13.4918 6.66146C13.0244 6.19503 12.4695 5.8256 11.8589 5.57442C11.2482 5.32323 10.594 5.19525 9.93371 5.19783V5.19783ZM9.93371 13.4745C9.28937 13.4745 8.6595 13.2835 8.12375 12.9255C7.588 12.5675 7.17043 12.0587 6.92386 11.4634C6.67728 10.8681 6.61276 10.2131 6.73847 9.5811C6.86417 8.94914 7.17445 8.36865 7.63007 7.91303C8.08569 7.45741 8.66618 7.14713 9.29814 7.02142C9.9301 6.89572 10.5851 6.96024 11.1804 7.20681C11.7757 7.45339 12.2845 7.87096 12.6425 8.40671C13.0005 8.94246 13.1916 9.57233 13.1916 10.2167C13.1916 10.6445 13.1073 11.0681 12.9436 11.4634C12.7798 11.8587 12.5399 12.2178 12.2374 12.5203C11.9348 12.8228 11.5757 13.0628 11.1804 13.2265C10.7852 13.3903 10.3615 13.4745 9.93371 13.4745V13.4745Z" fill="white"/>
</svg>
