<svg width="11" height="17" viewBox="0 0 11 17" fill="none" xmlns="http://www.w3.org/2000/svg">
<path d="M0.475532 9.31667L7.28616 15.9558C7.43549 16.1025 7.61315 16.219 7.80889 16.2985C8.00463 16.378 8.21458 16.4189 8.42663 16.4189C8.63867 16.4189 8.84862 16.378 9.04436 16.2985C9.2401 16.219 9.41776 16.1025 9.56709 15.9558C9.86626 15.6624 10.0342 15.2655 10.0342 14.8518C10.0342 14.4382 9.86626 14.0413 9.56709 13.7479L3.88085 8.20493L9.56709 2.66192C9.86626 2.36855 10.0342 1.97169 10.0342 1.55802C10.0342 1.14435 9.86626 0.74749 9.56709 0.454114C9.41699 0.30899 9.23899 0.194178 9.04329 0.116255C8.84758 0.038332 8.63802 -0.00116539 8.42663 2.67029e-05C8.21523 -0.00116539 8.00567 0.038332 7.80996 0.116255C7.61426 0.194178 7.43626 0.30899 7.28616 0.454114L0.475532 7.0932C0.324977 7.23876 0.20548 7.41194 0.12393 7.60275C0.0423813 7.79356 0.000395775 7.99823 0.000395775 8.20493C0.000395775 8.41164 0.0423813 8.6163 0.12393 8.80711C0.20548 8.99792 0.324977 9.1711 0.475532 9.31667Z" fill="white" fill-opacity="0.6"/>
</svg>
