<svg width="11" height="17" viewBox="0 0 11 17" fill="none" xmlns="http://www.w3.org/2000/svg">
<path d="M1.44496 9.34803L8.25302 15.9841C8.40229 16.1308 8.57988 16.2473 8.77555 16.3267C8.97121 16.4062 9.18108 16.4471 9.39305 16.4471C9.60502 16.4471 9.81489 16.4062 10.0106 16.3267C10.2062 16.2473 10.3838 16.1308 10.5331 15.9841C10.8321 15.6909 11 15.2942 11 14.8807C11 14.4672 10.8321 14.0706 10.5331 13.7773L4.84899 8.23679L10.5331 2.69628C10.8321 2.40303 11 2.00635 11 1.59287C11 1.17938 10.8321 0.782702 10.5331 0.489458C10.383 0.3444 10.2051 0.229639 10.0095 0.151752C9.81385 0.073864 9.60437 0.0343857 9.39305 0.0355759C9.18173 0.0343857 8.97225 0.073864 8.77662 0.151752C8.58099 0.229639 8.40306 0.3444 8.25302 0.489458L1.44496 7.12556C1.29446 7.27106 1.17501 7.44416 1.09349 7.63488C1.01197 7.82561 0.97 8.03018 0.97 8.23679C0.97 8.44341 1.01197 8.64798 1.09349 8.8387C1.17501 9.02942 1.29446 9.20253 1.44496 9.34803Z" fill="white"/>
</svg>
