<svg width="82" height="125" viewBox="0 0 82 125" fill="none" xmlns="http://www.w3.org/2000/svg">
<g opacity="0.15" clip-path="url(#clip0_367_36)">
<path d="M29.1602 0.290985C29.6353 0.606551 30.1304 0.917028 30.5921 1.24786C33.0143 2.95803 33.1481 5.57926 30.9066 7.24362C28.8658 8.76038 25.5002 8.77056 23.446 7.26398C21.1978 5.61489 21.3115 3.00384 23.7136 1.25804C24.1753 0.922118 24.6772 0.611641 25.1656 0.290985H29.1669H29.1602Z" fill="#FFF9F9"/>
<path d="M11.1615 0.290985C11.67 0.596372 12.212 0.881399 12.6871 1.21223C15.1695 2.94276 15.3368 5.50801 13.0952 7.18763C10.8671 8.85708 7.52823 8.81127 5.46067 7.07566C3.26598 5.23825 3.56038 2.7748 6.20338 1.12571C6.70521 0.810142 7.28735 0.565833 7.82933 0.290985H11.1615Z" fill="#FFF9F9"/>
<path d="M45.828 0.290985C46.3499 0.703257 46.8919 1.10535 47.4004 1.5278C49.6754 3.40593 49.5951 5.70651 47.1997 7.33015C44.9447 8.85708 41.7999 8.7502 39.7591 7.07057C37.7116 5.38585 37.9458 2.86641 40.3212 1.2275C40.7962 0.896669 41.3248 0.606551 41.8267 0.296075H45.828V0.290985Z" fill="#FFF9F9"/>
<path d="M78.5004 0.290985C79.0089 0.596372 79.5509 0.881399 80.026 1.21223C82.5084 2.94276 82.6756 5.50801 80.4341 7.18763C78.206 8.85708 74.8671 8.81127 72.7995 7.07566C70.6048 5.23825 70.8993 2.7748 73.5423 1.12571C74.0441 0.810142 74.6262 0.565833 75.1682 0.290985H78.5004Z" fill="#FFF9F9"/>
<path d="M61.8331 0.290985C62.6026 0.749065 63.4657 1.14098 64.1282 1.67541C66.1087 3.2736 65.9281 5.77268 63.807 7.29961C61.706 8.81127 58.4675 8.7502 56.3799 7.1571C54.4796 5.7116 54.3725 3.23288 56.2259 1.70594C56.8817 1.16134 57.7381 0.759245 58.5076 0.296075H61.8398L61.8331 0.290985Z" fill="white"/>
<path d="M32.4923 120.14C32.5525 122.364 30.2842 124.207 27.3937 124.293C24.3626 124.385 21.8133 122.517 21.8401 120.227C21.8668 118.023 24.2154 116.231 27.1193 116.206C30.0367 116.175 32.4388 117.931 32.4923 120.14Z" fill="#FFF9F9"/>
<path d="M32.4924 55.9121C32.5125 58.1414 30.2241 59.9534 27.3202 60.0094C24.2824 60.0705 21.7733 58.1821 21.8402 55.8867C21.9071 53.6777 24.2824 51.9166 27.1931 51.9166C30.1104 51.9166 32.4724 53.698 32.4924 55.907V55.9121Z" fill="#FFF9F9"/>
<path d="M27.1792 90.3954C30.1033 90.4106 32.4585 92.1819 32.4853 94.3857C32.5188 96.7067 30.0163 98.5644 26.9785 98.4779C24.0679 98.3965 21.7661 96.554 21.8264 94.3603C21.8933 92.1564 24.2887 90.375 27.1726 90.3903L27.1792 90.3954Z" fill="#FFF9F9"/>
<path d="M32.4928 68.6009C32.5196 70.8201 30.2044 72.6269 27.2938 72.6677C24.3564 72.7084 21.9476 70.9931 21.8338 68.7842C21.7201 66.4836 24.1958 64.5495 27.2068 64.58C30.1108 64.6055 32.4593 66.3971 32.4928 68.6009Z" fill="#FFF9F9"/>
<path d="M32.4925 30.3512C32.3453 32.5551 29.8897 34.2754 26.9924 34.1991C24.0818 34.1227 21.7734 32.2802 21.8403 30.0865C21.9072 27.7809 24.51 25.9587 27.5143 26.1165C30.425 26.2692 32.6397 28.1524 32.4925 30.3512Z" fill="#FFF9F9"/>
<path d="M43.7066 85.5957C40.7692 85.5957 38.4675 83.8651 38.4139 81.6206C38.3604 79.3302 40.8629 77.4215 43.8538 77.4673C46.6306 77.5131 49.093 79.4574 49.0595 81.5798C49.0261 83.6921 46.4834 85.6008 43.7066 85.5957Z" fill="#FFF9F9"/>
<path d="M43.8542 21.3169C40.9168 21.383 38.5481 19.6983 38.4277 17.4537C38.3005 15.1531 40.7027 13.2139 43.707 13.1885C46.4771 13.163 49.0064 15.0564 49.0599 17.1891C49.1067 19.3013 46.6511 21.2558 43.8609 21.3169H43.8542Z" fill="#FFF9F9"/>
<path d="M76.7478 103.278C79.6584 103.308 81.9401 105.074 81.9535 107.319C81.9669 109.655 79.4978 111.498 76.4601 111.411C73.6699 111.33 71.2209 109.35 71.3079 107.243C71.3949 105.146 73.9911 103.252 76.7478 103.278Z" fill="#FFF9F9"/>
<path d="M9.38115 47.1271C6.60433 47.1577 4.05501 45.2897 3.96803 43.152C3.88104 41.0856 6.37685 39.0802 9.14697 38.9937C12.1647 38.897 14.6337 40.7446 14.6136 43.0859C14.5935 45.3254 12.3052 47.0915 9.38784 47.1271H9.38115Z" fill="#FFF9F9"/>
<path d="M65.5533 107.278C65.6068 109.472 63.2984 111.294 60.361 111.36C57.4236 111.426 55.0215 109.742 54.8876 107.517C54.7471 105.227 57.176 103.293 60.2138 103.278C63.0307 103.262 65.4998 105.115 65.5533 107.278Z" fill="white"/>
<path d="M49.06 43.0248C49.0868 45.1116 46.591 47.0661 43.8208 47.1271C40.9637 47.1882 38.5215 45.4221 38.4278 43.2233C38.3274 40.9329 40.7697 38.9937 43.7539 38.9988C46.5308 38.9988 49.0332 40.8972 49.06 43.0248Z" fill="#FFF9F9"/>
<path d="M43.8937 103.283C46.6839 103.349 49.1128 105.293 49.0593 107.416C49.0058 109.507 46.4297 111.416 43.6729 111.411C40.6753 111.406 38.2866 109.467 38.4204 107.146C38.5475 104.988 41.0567 103.211 43.8937 103.283Z" fill="#FFF9F9"/>
<path d="M65.5598 43.0299C65.5866 45.2185 63.2447 47.0355 60.3206 47.0813C57.3899 47.1322 54.9945 45.4221 54.8808 43.2029C54.767 40.9176 57.2226 38.9937 60.2537 38.9937C63.0707 38.9937 65.5263 40.8616 65.5531 43.0299H65.5598Z" fill="white"/>
<path d="M81.9462 42.9382C82.0198 45.1981 79.8653 46.9846 76.9145 47.1119C74.0172 47.234 71.2939 45.2694 71.2939 43.0553C71.2939 40.9889 73.87 39.0242 76.6201 38.9987C79.5307 38.9682 81.8726 40.7038 81.9462 42.9433V42.9382Z" fill="#FFF9F9"/>
<path d="M14.6135 107.354C14.6002 109.594 12.3252 111.365 9.40786 111.411C6.49722 111.457 3.85423 109.411 3.97467 107.202C4.08842 105.095 6.69796 103.227 9.4547 103.272C12.372 103.323 14.6202 105.1 14.6135 107.349V107.354Z" fill="#FFF9F9"/>
<path d="M65.5335 17.6217C65.2257 19.8612 62.7634 21.4238 59.8059 21.2507C56.7213 21.0726 54.5601 19.0723 54.9348 16.7564C55.2961 14.522 57.8253 13.0154 60.7694 13.2699C63.747 13.5295 65.8346 15.4331 65.5335 17.6217Z" fill="white"/>
<path d="M9.50131 34.1991C6.66428 34.2602 4.14172 32.5042 3.97444 30.336C3.80716 28.1677 6.41 26.1369 9.38086 26.1114C12.2781 26.0911 14.5866 27.8521 14.5999 30.1018C14.6133 32.3668 12.412 34.1329 9.50131 34.1991Z" fill="#FFF9F9"/>
<path d="M49.0527 30.1222C49.0794 32.2141 46.597 34.1431 43.7935 34.1991C40.8561 34.2602 38.5075 32.5602 38.4272 30.3207C38.3402 27.9539 40.6687 26.1063 43.7265 26.1114C46.4967 26.1165 49.0259 28.0252 49.0527 30.1273V30.1222Z" fill="#FFF9F9"/>
<path d="M81.9397 30.2443C81.8728 32.494 79.5711 34.2144 76.6538 34.1991C73.6896 34.1838 71.147 32.153 71.3209 29.9389C71.4882 27.8318 74.0844 26.0554 76.908 26.1114C79.8053 26.1725 82.0067 27.9794 81.9397 30.2443Z" fill="#FFF9F9"/>
<path d="M49.0528 55.9986C49.0327 58.1007 46.5235 59.9839 43.7133 60.0094C40.8026 60.0348 38.4674 58.2941 38.4206 56.0597C38.3738 53.7031 40.7491 51.8759 43.8069 51.9217C46.5771 51.9624 49.0662 53.9016 49.0461 55.9935L49.0528 55.9986Z" fill="#FFF9F9"/>
<path d="M14.6 68.6976C14.5465 70.9524 12.2715 72.6676 9.34748 72.6727C6.39 72.6727 3.82731 70.6572 3.9812 68.4431C4.12172 66.3411 6.71787 64.5393 9.54152 64.5851C12.4254 64.6309 14.6602 66.4479 14.6067 68.7027L14.6 68.6976Z" fill="#FFF9F9"/>
<path d="M43.693 72.6677C40.7155 72.6727 38.4606 70.9778 38.4271 68.7078C38.3937 66.3461 40.7757 64.5291 43.8402 64.58C46.6037 64.6207 49.0995 66.5803 49.0593 68.6824C49.0192 70.7946 46.5033 72.6676 43.693 72.6727V72.6677Z" fill="#FFF9F9"/>
<path d="M81.9399 68.6976C81.8863 70.9524 79.6114 72.6676 76.6873 72.6727C73.7299 72.6727 71.1671 70.6572 71.321 68.4431C71.4616 66.3411 74.0577 64.5393 76.8814 64.5851C79.7652 64.6309 82.0001 66.4479 81.9466 68.7027L81.9399 68.6976Z" fill="#FFF9F9"/>
<path d="M60.348 85.5499C57.4039 85.6059 55.0218 83.9212 54.888 81.6969C54.7609 79.4829 56.9823 77.6251 59.8997 77.5131C62.9642 77.3961 65.5269 79.1978 65.5604 81.4882C65.5938 83.6921 63.2854 85.4888 60.348 85.5448V85.5499Z" fill="white"/>
<path d="M14.5999 94.4977C14.5463 96.7474 12.2647 98.4779 9.34734 98.4779C6.38317 98.4779 3.82047 96.4624 3.97437 94.2432C4.12157 92.1411 6.70434 90.3445 9.53469 90.3903C12.4319 90.4361 14.6534 92.2328 14.5999 94.4977Z" fill="#FFF9F9"/>
<path d="M49.053 94.3297C49.14 96.4165 46.6977 98.3812 43.8941 98.483C40.95 98.5848 38.5546 96.9204 38.4275 94.6809C38.2937 92.3091 40.5687 90.431 43.6198 90.3953C46.3966 90.3597 48.9593 92.2226 49.0463 94.3348L49.053 94.3297Z" fill="#FFF9F9"/>
<path d="M76.2721 98.4779C73.4753 98.3151 71.1267 96.2741 71.3274 94.1822C71.5348 91.9732 74.3719 90.1816 77.2959 90.4055C80.153 90.6244 82.167 92.5432 81.9262 94.8184C81.692 97.0121 79.1694 98.651 76.2788 98.483L76.2721 98.4779Z" fill="#FFF9F9"/>
<path d="M49.0526 120.298C49.0192 122.4 46.5033 124.278 43.693 124.293C40.7824 124.309 38.4606 122.563 38.4271 120.328C38.3936 117.977 40.7824 116.155 43.8402 116.211C46.6037 116.262 49.0928 118.211 49.0593 120.303L49.0526 120.298Z" fill="#FFF9F9"/>
<path d="M81.9467 17.1891C81.9868 19.4387 79.7921 21.21 76.8547 21.3067C73.9508 21.4034 71.2676 19.4184 71.3011 17.2043C71.3345 15.0717 73.7835 13.2648 76.6875 13.2292C79.5914 13.1936 81.9132 14.9394 81.9467 17.1941V17.1891Z" fill="#FFF9F9"/>
<path d="M32.4855 42.9331C32.5324 45.1319 30.2507 47.0202 27.4137 47.122C24.4829 47.2289 21.8199 45.2846 21.84 43.0502C21.86 40.8921 24.2822 39.0242 27.0992 38.9987C29.9496 38.9733 32.4387 40.7903 32.4855 42.9331Z" fill="white"/>
<path d="M14.6071 81.6257C14.5469 83.8601 12.2385 85.5906 9.30776 85.5957C6.53763 85.5957 4.00839 83.7023 3.96156 81.5748C3.91472 79.3607 6.53763 77.447 9.55533 77.4978C12.4325 77.5487 14.6673 79.3709 14.6138 81.6206L14.6071 81.6257Z" fill="#FFF9F9"/>
<path d="M14.6003 55.9732C14.5869 58.2076 12.2919 59.9992 9.42808 60.0145C6.51744 60.0297 3.86776 57.9938 3.97482 55.8256C4.08187 53.7286 6.65127 51.9013 9.46155 51.9217C12.3588 51.9421 14.6137 53.7235 14.6003 55.9681V55.9732Z" fill="#FFF9F9"/>
<path d="M76.4798 85.5957C73.703 85.5295 71.2407 83.5547 71.3009 81.4526C71.3678 79.2182 74.0443 77.391 77.0553 77.5131C79.9726 77.6353 82.0736 79.4574 81.9398 81.7478C81.8059 83.9619 79.3971 85.6618 76.4798 85.5906V85.5957Z" fill="#FFF9F9"/>
<path d="M76.6272 51.9268C79.5312 51.8759 81.8864 53.6064 81.9467 55.8357C82.0069 58.0803 79.8122 59.9126 76.9417 60.0093C74.0444 60.1061 71.3211 58.1465 71.3145 55.9579C71.3145 53.866 73.7969 51.9726 76.6272 51.9217V51.9268Z" fill="#FFF9F9"/>
<path d="M9.35497 21.3169C6.57815 21.3372 4.0422 19.4642 3.9686 17.3265C3.88831 15.1175 6.49785 13.1834 9.51555 13.2139C12.386 13.2445 14.6543 15.0666 14.6142 17.3112C14.574 19.5456 12.2857 21.2914 9.35497 21.3118V21.3169Z" fill="#FFF9F9"/>
<path d="M27.2736 111.406C24.4432 111.447 21.9341 109.63 21.8471 107.482C21.7601 105.329 24.0953 103.395 26.9123 103.283C29.8764 103.171 32.5194 105.084 32.4927 107.324C32.4659 109.528 30.1173 111.365 27.2736 111.406Z" fill="white"/>
<path d="M76.888 116.206C79.7919 116.262 81.9933 118.053 81.9331 120.318C81.8796 122.553 79.5377 124.319 76.6739 124.293C73.7565 124.268 71.147 122.196 71.3143 120.038C71.4749 117.936 74.0777 116.15 76.888 116.206Z" fill="#FFF9F9"/>
<path d="M9.5149 116.206C12.4122 116.246 14.6403 118.038 14.6002 120.288C14.56 122.522 12.2449 124.298 9.37439 124.293C6.45706 124.288 3.82745 122.227 3.97465 120.069C4.11516 117.972 6.69794 116.165 9.5149 116.206Z" fill="#FFF9F9"/>
<path d="M60.0862 90.3953C62.9567 90.3648 65.419 92.1361 65.5261 94.2992C65.6265 96.4522 63.2779 98.3914 60.4676 98.4728C57.4164 98.5644 54.9341 96.7678 54.8939 94.4519C54.8604 92.2786 57.2358 90.4208 60.0929 90.3953H60.0862Z" fill="white"/>
<path d="M32.4854 81.4221C32.5657 83.5903 30.2439 85.4939 27.4002 85.5906C24.6033 85.6822 22.0138 83.9008 21.8465 81.7682C21.6725 79.5185 24.155 77.4877 27.0991 77.4724C29.9294 77.452 32.4051 79.2742 32.4854 81.4272V81.4221Z" fill="white"/>
<path d="M32.4861 17.1331C32.5731 19.3013 30.2579 21.21 27.4142 21.3118C24.6173 21.4136 22.0212 19.6271 21.8472 17.4995C21.6665 15.2499 24.1423 13.219 27.0864 13.1936C29.9167 13.1681 32.3991 14.9852 32.4861 17.1382V17.1331Z" fill="white"/>
<path d="M60.2607 26.1165C63.1379 26.1623 65.52 27.9946 65.52 30.1578C65.52 32.321 63.0978 34.1838 60.2808 34.1991C57.2497 34.2144 54.8075 32.3362 54.8744 30.0407C54.9346 27.8827 57.4237 26.0707 60.2607 26.1216V26.1165Z" fill="white"/>
<path d="M60.247 64.58C63.1242 64.6207 65.5196 66.4428 65.5263 68.6111C65.533 70.7946 63.151 72.6422 60.3073 72.6626C57.2561 72.6829 54.8272 70.8302 54.8808 68.5195C54.9276 66.3665 57.4167 64.5393 60.247 64.58Z" fill="white"/>
<path d="M60.0332 60.0094C57.1761 59.9432 54.8609 58.1058 54.881 55.9121C54.9011 53.7489 57.3299 51.9217 60.1804 51.9268C63.178 51.9268 65.6671 53.8965 65.5266 56.1462C65.3927 58.2992 62.8635 60.0755 60.0399 60.0094H60.0332Z" fill="white"/>
<path d="M65.5199 120.176C65.5801 122.318 63.198 124.212 60.361 124.288C57.3768 124.365 54.8609 122.486 54.881 120.191C54.9011 118.028 57.3299 116.201 60.1804 116.206C63.0508 116.206 65.4663 118.007 65.5266 120.176H65.5199Z" fill="white"/>
</g>
<defs>
<clipPath id="clip0_367_36">
<rect width="259" height="124.119" fill="white" transform="translate(-177 0.179016)"/>
</clipPath>
</defs>
</svg>
