
<svg width="171" height="116" viewBox="0 0 171 116" fill="none" xmlns="http://www.w3.org/2000/svg">
<path d="M124.234 73.83C124.441 73.6762 124.468 73.4385 124.476 73.1735C124.483 72.9341 124.532 72.6948 124.57 72.399C124.678 72.4913 124.762 72.5341 124.759 72.5666C124.701 73.2231 124.627 73.8762 124.571 74.5327C124.549 74.7909 124.403 74.8695 124.234 74.9379V73.8317V73.83Z" fill="white" fill-opacity="0.5"/>
<path d="M153.167 75.0927C153.241 74.266 153.297 73.4362 153.393 72.6112C153.484 71.8052 153.614 71.0025 153.738 70.1218C152.246 69.8738 150.709 69.8309 149.213 69.5893C147.737 69.3524 146.184 69.4859 144.682 69.0027C144.616 67.2874 145.032 65.6088 145.176 63.9094C144.138 63.8013 143.136 63.6964 142.069 63.5851C142.034 61.571 142.561 59.6285 142.656 57.6573C143.266 57.492 144.884 57.6446 145.65 57.918C145.364 59.8144 145.083 61.6871 144.812 63.5613C144.807 63.5978 144.962 63.6519 145.048 63.6996C145.335 63.2131 145.844 59.8749 145.869 58.3059C146.114 58.3059 146.365 58.2868 146.61 58.309C148.553 58.4903 150.494 58.6874 152.439 58.8638C153.789 58.9878 155.141 59.0959 156.493 59.1977C158.182 59.3248 159.872 59.4377 161.565 59.5522C161.868 59.5728 162.134 59.6253 162.264 59.8812C161.038 59.8144 159.814 59.7556 158.59 59.6825C157.208 59.6014 155.825 59.541 154.45 59.4123C152.404 59.2215 150.365 58.9735 148.323 58.7637C147.682 58.6985 147.035 58.6794 146.301 58.6333C145.858 62.0193 145.421 65.3592 144.974 68.7817C150.204 69.4557 155.483 69.8611 160.733 70.4954C160.813 69.8865 160.886 69.3158 160.962 68.7452C161.137 67.4067 161.31 66.0698 161.485 64.7313C161.611 63.7552 161.722 62.7776 161.872 61.8047C161.971 61.1561 162.122 60.5139 162.25 59.8685C162.575 59.7985 162.526 59.9973 162.511 60.1324C162.421 60.8954 162.322 61.6585 162.219 62.4215C162.101 63.2926 161.973 64.1622 161.854 65.0317C161.658 66.4751 161.469 67.9169 161.273 69.3604C161.207 69.842 161.129 70.3237 161.056 70.8244C160.001 70.7163 159.029 70.6178 158.017 70.5144C157.842 72.0453 157.675 73.5253 157.506 75.0052C157.222 74.6364 157.191 74.2438 157.238 73.84C157.341 72.9482 157.444 72.0564 157.539 71.1646C157.552 71.0422 157.523 70.9166 157.51 70.7449C156.369 70.6496 155.262 70.5558 154.067 70.4556C153.88 71.9149 153.7 73.3234 153.513 74.7763C154.811 75.0195 156.103 74.9353 157.288 75.3295C155.893 75.4249 154.523 75.293 153.161 75.0784L153.175 75.0895L153.167 75.0927ZM142.374 63.2863C143.114 63.3737 143.765 63.4516 144.436 63.5295C144.688 61.6648 144.927 59.8908 145.174 58.0658C144.511 58.0086 143.851 57.9514 143.091 57.8846C142.85 59.6968 142.619 61.447 142.374 63.2863Z" fill="white" fill-opacity="0.5"/>
<path d="M153.313 74.801C153.402 74.9801 153.489 75.1591 153.546 75.2753C154.831 75.4592 156.054 75.6334 157.306 75.8109V78.3501C157.478 78.3614 157.727 78.3679 157.973 78.3969C158.862 78.5001 159.376 78.9777 159.376 79.6665C159.376 80.1327 159.113 80.4328 158.595 80.628C157.993 80.8539 157.365 80.8893 156.725 80.8458C155.617 80.7716 154.508 80.7087 153.408 80.5877C152.572 80.4957 151.806 80.2602 151.549 79.4019C151.206 80.0634 150.594 80.2392 149.891 80.2215C149.016 80.1989 148.133 80.1763 147.27 80.0682C146.553 79.9779 145.85 79.9795 145.135 79.9875C144.12 79.9988 143.806 79.5859 143.666 78.9648C143.498 78.2227 144.187 77.5193 145.109 77.4596C145.558 77.4306 146.01 77.4548 146.547 77.4548C146.593 77.166 146.63 76.8966 146.677 76.6272C146.774 76.0706 146.867 75.514 146.976 74.9591C147.033 74.6671 147.26 74.5703 147.612 74.6203C148.652 74.7703 149.697 74.9123 150.74 75.0607C150.957 75.0914 150.957 75.0962 151.148 74.7865C149.786 74.659 148.439 74.5332 147.112 74.4074C147.27 72.7361 147.422 71.126 147.58 69.437C149.136 69.6015 150.621 69.5531 152.088 69.9613C152.088 70.1178 152.1 70.263 152.088 70.4082C151.984 71.489 151.889 72.5699 151.755 73.6491C151.711 74.0073 151.569 74.3574 151.464 74.7107C151.447 74.7687 151.372 74.8204 151.368 74.8768C151.299 75.8028 151.237 76.7288 151.172 77.6742C151.064 77.708 150.927 77.75 150.886 77.7629C151.166 78.2259 151.439 78.6776 151.729 79.1567C151.948 78.4114 152.754 78.3001 153.597 78.071C153.441 78.0339 153.394 78.0194 153.344 78.0129C153.265 78.0017 153.184 78.0033 153.109 77.9855C153.036 77.9678 152.969 77.9307 152.815 77.8678C153.364 77.558 153.791 77.771 154.205 77.7952C154.683 77.8242 155.161 77.8468 155.637 77.8855C156.08 77.921 156.52 77.971 157.027 78.0226C156.984 77.3402 156.943 76.6998 156.897 75.9835C155.777 75.9367 154.685 75.6705 153.576 75.7609C153.232 76.3449 153.479 76.9966 153.054 77.5774C152.821 77.0418 152.934 76.0916 153.335 74.8123C153.333 74.8107 153.319 74.7994 153.319 74.7994L153.313 74.801ZM151.247 74.4671C151.385 72.9764 151.518 71.56 151.654 70.1C150.463 70.0129 149.257 69.9258 147.963 69.8322C147.807 71.2858 147.657 72.6796 147.503 74.1138C148.743 74.2315 149.977 74.3477 151.247 74.4671ZM146.073 79.6601C146.52 79.6988 147.069 79.7569 147.619 79.794C148.411 79.8472 149.203 79.902 149.997 79.9182C150.238 79.923 150.522 79.8424 150.72 79.7246C151.127 79.481 151.212 79.1325 151.054 78.7373C150.876 78.2888 150.542 78.0517 149.966 78.0146C148.828 77.9404 147.691 77.8581 146.553 77.8097C145.998 77.7855 145.433 77.7855 144.886 77.8516C144.349 77.9162 144.059 78.3324 144.089 78.8389C144.118 79.3245 144.414 79.6036 145.007 79.6552C145.321 79.6826 145.643 79.6601 146.073 79.6601V79.6601ZM154.49 78.4179C153.984 78.4905 153.354 78.5453 152.75 78.6824C152.3 78.7841 152.029 79.1519 152.059 79.4713C152.092 79.8278 152.42 80.0037 152.774 80.0989C153.22 80.2199 153.69 80.3102 154.158 80.3521C154.889 80.4183 155.625 80.457 156.362 80.4618C156.99 80.4667 157.634 80.4651 158.242 80.357C158.848 80.2489 159.018 79.9876 158.981 79.5713C158.943 79.16 158.621 78.8373 158.09 78.776C156.939 78.6437 155.783 78.5437 154.492 78.4179H154.49ZM150.665 77.429C150.775 76.7401 150.886 76.0642 151.004 75.335C149.78 75.2156 148.607 75.1011 147.371 74.9801C147.236 75.698 147.11 76.3691 146.974 77.0966C148.228 77.2096 149.405 77.316 150.665 77.4306V77.429Z" fill="white" fill-opacity="0.5"/>
<path d="M165.284 64.9559C165.224 63.1016 165.618 61.2747 165.777 59.3769C165.033 59.3142 164.323 59.2546 163.538 59.187C163.471 59.4542 163.378 59.7005 163.353 59.95C163.239 61.1153 163.158 62.2839 163.038 63.4493C162.989 63.9209 162.875 64.3877 162.788 64.8787C163.614 65.1217 164.522 65.0316 165.313 65.4034C165.042 65.4356 164.77 65.4662 164.464 65.5016C164.741 65.5869 164.982 65.661 165.241 65.7414C165.048 67.5265 164.876 69.2971 164.397 71.0372C164.223 69.3229 164.764 67.644 164.776 65.8928C164.087 65.8493 163.477 65.8091 162.775 65.7656C162.527 67.5813 162.29 69.3342 162.044 71.1402C162.496 71.1756 162.877 71.2303 163.256 71.2303C164.228 71.2335 164.77 71.7374 165.224 72.3555C166.038 73.4581 165.873 74.8069 164.824 75.6359C164.729 75.7099 164.638 75.7936 164.528 75.8435C164.23 75.9739 163.923 76.0882 163.623 76.2073C163.018 75.4926 163.13 74.9888 163.985 74.5478C164.329 74.3707 164.48 74.1277 164.472 73.7913C164.455 72.8754 163.419 72.2895 162.386 72.6355C161.714 72.8609 161.31 73.31 161.085 73.8669C160.95 74.2065 161.174 74.6009 161.582 74.8085C161.735 74.8874 161.913 74.9309 162.085 74.9937C162.085 75.2592 162.108 75.52 162.079 75.7743C162.046 76.0496 161.855 76.1381 161.538 76.0496C161.014 75.9031 160.674 75.5667 160.397 75.1981C159.504 74.0118 159.815 72.1494 161.329 71.5571C161.654 71.4299 161.646 71.2062 161.679 70.9631C161.895 69.2859 162.073 67.6022 162.382 65.9362C162.514 65.2344 162.493 64.5358 162.58 63.8389C162.665 63.1499 162.713 62.4578 162.781 61.7672C162.875 60.8224 162.974 59.8775 163.076 58.8779C164.165 58.7942 165.129 58.9922 166.194 59.1967C165.989 61.1524 165.831 63.0727 165.286 64.9559H165.284ZM163.817 75.7502C164.994 75.2673 165.543 74.3707 165.303 73.3921C165.044 72.3361 164.101 71.6231 162.893 71.57C161.754 71.5201 160.701 72.1188 160.403 73.0235C160.136 73.8283 160.345 75.1433 161.598 75.7309C161.762 75.4508 161.679 75.256 161.356 75.0822C160.726 74.7425 160.563 74.2355 160.772 73.6593C161.012 72.9977 161.536 72.5261 162.317 72.2862C163.274 71.9933 164.219 72.3329 164.671 73.1007C165.139 73.8959 164.971 74.3707 164.035 74.9035C163.618 75.1417 163.587 75.2415 163.817 75.7502V75.7502Z" fill="white" fill-opacity="0.5"/>
<path d="M142.582 73.3246C143.663 72.727 144.005 72.136 143.754 71.4118C143.594 70.9458 142.999 70.6276 142.254 70.6097C141.348 70.587 140.684 70.8987 140.447 71.4557C140.157 72.1393 140.459 72.7579 141.383 73.3246C141.31 73.6201 141.232 73.9318 141.157 74.2306C139.849 74.2306 138.585 73.1476 139 71.7333C139.297 70.7283 139.843 70.1291 140.926 69.5868C140.96 69.0769 140.974 68.5638 141.036 68.0556C141.195 66.7096 141.371 65.3635 141.546 64.0175C141.606 63.558 141.725 63.4735 142.244 63.5271C142.747 63.5791 143.25 63.6375 143.749 63.7122C144.305 63.7966 144.357 63.8356 144.307 64.2578C144.134 65.6688 143.947 67.0798 143.751 68.4892C143.725 68.6791 143.619 68.8626 143.421 69.0575C143.393 68.9081 143.325 68.7538 143.341 68.6077C143.446 67.6952 143.572 66.7859 143.689 65.875C143.766 65.271 143.84 64.6669 143.923 64.0045C143.274 63.9558 142.677 63.9119 142.007 63.8632C141.759 65.6201 141.517 67.3428 141.27 69.0883C142.147 69.2085 142.999 69.327 143.999 69.465C143.778 69.5933 143.705 69.6371 143.601 69.6972C144.752 70.4295 145.458 71.3566 145.136 72.5728C144.881 73.534 144.043 74.1315 142.828 74.5147C142.739 74.091 142.661 73.7175 142.58 73.3311L142.582 73.3246ZM140.749 73.8945C141.048 73.5762 140.755 73.4009 140.521 73.1882C139.805 72.5371 139.72 71.6002 140.294 70.9572C140.891 70.2899 142.192 70.0171 143.12 70.3954C143.756 70.6536 144.156 71.0514 144.176 71.6814C144.196 72.3568 144.031 72.9446 143.301 73.3408C142.959 73.5259 143.053 73.7126 143.202 73.9367C144.414 73.4837 144.971 72.6361 144.74 71.644C144.492 70.574 143.389 69.7735 142.137 69.7492C140.853 69.7264 139.831 70.4733 139.446 71.722C139.142 72.7076 139.539 73.3749 140.749 73.8945V73.8945Z" fill="white" fill-opacity="0.5"/>
<path d="M147.897 57.3052C152.334 57.9044 156.798 58.1275 161.348 58.0844C161.563 55.7865 161.446 53.4726 162.223 51.2512C162.289 51.248 162.356 51.2448 162.422 51.2416C162.457 51.3612 162.549 51.4918 162.516 51.5986C161.944 53.4456 161.985 55.3419 161.817 57.2207C161.787 57.5538 161.74 57.8868 161.692 58.3155C160.805 58.3569 159.874 58.4318 158.942 58.435C157.997 58.4382 157.052 58.3713 156.107 58.333C155.187 58.2964 154.267 58.2757 153.35 58.2135C152.41 58.1498 151.469 58.0669 150.538 57.949C149.637 57.8343 148.71 57.7992 147.837 57.5729C147.856 57.4837 147.878 57.396 147.897 57.3068V57.3052Z" fill="white" fill-opacity="0.5"/>
<path d="M148.931 49.5214C149.847 49.4971 150.747 49.6808 151.77 49.7142C151.806 49.4197 151.839 49.1236 151.875 48.829C151.923 48.4403 152.079 48.3127 152.543 48.2839C152.939 48.258 153.106 48.3461 153.098 48.6513C153.088 49.0158 153.013 49.3771 152.955 49.816C154.515 49.9618 156.087 50.1075 157.778 50.2655V48.6954C158.301 48.7288 158.706 48.7531 159.173 48.7819V50.3216C160.143 50.5494 161.15 50.3915 161.998 50.8167C159.776 50.8455 157.594 50.5266 155.397 50.3581C153.223 50.191 151.048 50.0012 148.886 49.7674C148.902 49.6854 148.915 49.6019 148.931 49.5199V49.5214ZM158.951 50.3323C158.912 49.9557 158.872 49.6383 158.848 49.3194C158.823 48.9717 158.571 49.0097 158.244 49.0704V50.2351C158.472 50.267 158.688 50.2958 158.949 50.3323H158.951ZM152.585 49.857C152.636 49.3756 152.676 49.0249 152.721 48.5875C152.517 48.665 152.339 48.6984 152.335 48.7394C152.313 49.0704 152.057 49.4288 152.583 49.857H152.585Z" fill="white" fill-opacity="0.5"/>
<path d="M150.528 55.999C150.498 55.8077 150.455 55.6657 150.459 55.5269C150.471 55.1489 150.584 55.044 151.076 55.0502C151.704 55.0595 152.33 55.1042 152.957 55.1551C154.18 55.2523 155.401 55.3572 156.621 55.4729C157.522 55.5593 158.419 55.6688 159.375 55.7737C159.342 56.161 159.315 56.4602 159.292 56.7425C156.328 56.4911 153.438 56.2458 150.529 55.999H150.528ZM158.897 55.9697C158.46 55.9542 158.043 55.9573 157.631 55.9203C155.604 55.7413 153.577 55.5485 151.55 55.3726C151.32 55.3526 151.019 55.2646 150.836 55.5917C151.148 55.7552 151.505 55.7845 151.852 55.8154C152.683 55.8894 153.518 55.9481 154.352 56.0175C155.706 56.1286 157.06 56.2427 158.414 56.3584C158.708 56.3831 158.954 56.3692 158.897 55.9697V55.9697Z" fill="white" fill-opacity="0.5"/>
<path d="M158.852 38.8706C159.927 38.2193 163.831 38.6272 165.656 39.4248C168.432 40.6384 170.932 43.6133 170.915 44.8944C170.565 44.6691 170.448 44.3567 170.286 44.0804C169.224 42.2714 167.733 40.7996 165.615 39.8145C164.428 39.2619 163.175 38.9018 161.799 38.9117C161.01 38.9166 160.224 38.9215 159.435 38.9199C159.24 38.9199 159.047 38.887 158.852 38.8689V38.8706Z" fill="white" fill-opacity="0.5"/>
<path d="M143.819 84.1991C141.647 83.6233 139.755 82.8884 138.005 81.9508C137.948 81.9202 137.928 81.8478 137.871 81.7642C138.245 81.6114 138.464 81.8076 138.708 81.9234C140.211 82.6326 141.746 83.2985 143.426 83.7423C143.842 83.8517 144.269 83.9434 144.69 84.0415C143.645 84.7877 142.638 85.476 141.676 86.2013C140.723 86.9202 140.02 87.8112 138.988 88.4786C140.179 86.8446 141.763 85.4615 143.821 84.1991H143.819Z" fill="white" fill-opacity="0.5"/>
<path d="M166.12 45.7407C164.828 43.1392 162.52 41.711 158.852 41.856C158.852 41.5563 159.11 41.5691 159.309 41.5452C160.323 41.4224 161.284 41.6312 162.203 41.9134C163.888 42.4299 165.101 43.3688 165.894 44.6249C166.101 44.9517 166.31 45.3024 166.12 45.7407V45.7407Z" fill="white" fill-opacity="0.5"/>
<path d="M147.369 56.7426C147.349 56.5711 147.302 56.3981 147.315 56.2283C147.513 53.6554 148.243 50.6851 148.886 49.9722C148.862 50.3086 148.875 50.5858 148.819 50.8549C148.409 52.8127 147.986 54.7688 147.567 56.7249C147.5 56.7313 147.433 56.7361 147.367 56.7426H147.369Z" fill="white" fill-opacity="0.5"/>
<path d="M158.997 51.7799C159.233 52.0829 159.356 52.2877 159.531 52.4535C160.051 52.941 160.031 53.4572 159.408 53.8516C158.917 54.163 158.365 54.3018 157.74 54.1275C157.103 53.9498 156.797 53.6197 156.757 53.0256C156.717 52.44 156.989 52.049 157.599 51.8375C158.115 51.6597 158.635 51.5853 158.997 51.7799ZM157.188 52.9715C157.202 53.5131 157.657 53.8956 158.26 53.8702C158.901 53.8448 159.511 53.4403 159.485 53.0578C159.457 52.6414 158.814 52.0304 158.401 52.0287C157.67 52.0253 157.17 52.4112 157.186 52.9715H157.188Z" fill="white" fill-opacity="0.5"/>
<path d="M152.197 51.6456C151.988 51.6292 151.778 51.6028 151.569 51.5978C150.97 51.5863 150.436 51.9424 150.345 52.4073C150.259 52.8476 150.584 53.2762 151.089 53.39C151.647 53.5169 152.484 53.2548 152.608 52.8294C152.684 52.5656 152.505 52.2557 152.447 51.9919C152.959 52.0941 153.219 52.498 153.008 52.9729C152.759 53.5318 151.702 53.9176 150.928 53.7346C150.267 53.5779 149.804 52.8772 149.968 52.2886C150.153 51.6308 150.967 51.1444 151.731 51.2582C151.918 51.2862 152.088 51.3884 152.265 51.4577C152.242 51.5203 152.22 51.583 152.197 51.644V51.6456Z" fill="white" fill-opacity="0.5"/>
<path d="M164.46 46.587C164.336 46.4441 164.229 46.2941 164.089 46.1598C163.635 45.7241 163.216 45.2641 162.691 44.8726C162.115 44.4412 161.353 44.2454 160.472 44.3555C160.363 44.3697 160.248 44.3712 160.137 44.3655C160.089 44.364 160.043 44.3312 159.9 44.2754C160.072 44.194 160.2 44.0869 160.344 44.074C161.022 44.0183 161.696 44.0354 162.299 44.2983C163.513 44.8255 164.301 45.557 164.621 46.5099C164.569 46.5356 164.514 46.5613 164.462 46.5856L164.46 46.587Z" fill="white" fill-opacity="0.5"/>
<path d="M130.004 67.3215C129.063 67.9284 128.215 68.4766 127.382 69.0138C127.484 68.315 128.969 67.3025 130.004 67.3215Z" fill="white" fill-opacity="0.5"/>
<path d="M136.822 64.5511C135.557 64.649 134.298 64.7257 133.15 65.2055C133.82 64.4401 135.513 64.1236 136.822 64.5511Z" fill="white" fill-opacity="0.5"/>
<path d="M138.92 84.8672C137.859 85.2228 136.816 85.0837 135.773 84.957C135.778 84.8619 135.782 84.7687 135.784 84.6736C136.831 84.6472 137.873 84.7845 138.918 84.8672H138.92Z" fill="white" fill-opacity="0.5"/>
<path d="M128.955 83.9077C129.118 83.8635 129.212 83.8095 129.267 83.8275C130.028 84.0845 130.783 84.3497 131.578 84.6263C130.858 84.7884 129.771 84.4921 128.955 83.9077Z" fill="white" fill-opacity="0.5"/>
<path d="M125.312 78.7462C125.889 79.395 126.156 80.0862 126.332 80.862C125.682 80.3242 125.151 79.2646 125.312 78.7462V78.7462Z" fill="white" fill-opacity="0.5"/>
<path d="M158.621 66.8981C157.274 66.8119 156.048 66.7319 154.791 66.652C154.767 66.4012 155.043 66.3135 155.229 66.1803C155.745 65.812 156.278 65.4562 156.782 65.0785C157.008 64.9092 157.306 64.6976 157.074 64.4312C156.82 64.1412 156.454 64.345 156.206 64.4578C155.721 64.6788 155.271 64.9531 154.831 65.2289C154.495 65.4389 154.177 65.6709 153.883 65.917C153.296 66.4122 152.596 66.5564 151.76 66.4436C150.727 66.3056 149.683 66.2226 148.654 66.0721C147.884 65.9593 147.772 65.7947 147.864 65.196C148 64.2964 148.128 63.3968 148.274 62.4972C148.424 61.5772 148.893 61.328 149.833 61.4126C150.873 61.5051 151.918 61.5631 152.958 61.6587C154.373 61.7888 155.783 61.9424 157.196 62.085C157.702 62.1367 158.212 62.179 158.717 62.2386C159.267 62.3044 159.319 62.3702 159.359 62.8122C159.453 63.8576 159.137 64.8638 158.889 65.8762C158.805 66.2226 158.707 66.5674 158.621 66.8981V66.8981ZM158.905 62.6335C158.791 62.5959 158.719 62.5583 158.643 62.5505C156.802 62.3687 154.959 62.1806 153.116 62.0113C151.996 61.9094 150.873 61.8107 149.747 61.759C148.957 61.7229 148.831 61.8358 148.721 62.4658C148.562 63.3842 148.416 64.3027 148.282 65.2242C148.256 65.4029 148.308 65.5894 148.322 65.7743C148.602 65.8167 148.811 65.8605 149.023 65.8778C149.931 65.9546 150.849 65.9891 151.748 66.1066C152.508 66.2053 153.08 66.0721 153.647 65.6458C154.361 65.1098 155.153 64.6302 155.957 64.1773C156.494 63.8764 157.19 63.9265 157.448 64.1914C157.724 64.4751 157.584 64.8998 157.08 65.3183C156.682 65.649 156.286 65.9812 155.821 66.3699C156.652 66.4295 157.438 66.4859 158.218 66.5423C158.871 64.3042 159.115 63.6538 158.903 62.6335H158.905Z" fill="white" fill-opacity="0.5"/>
<path d="M0.769133 33.6362C0.608073 33.816 0.447022 33.9958 0.285962 34.1756C0.190641 34.125 0.0953213 34.0744 0 34.0239C0.493041 33.2401 0.959793 32.4423 1.4857 31.6753C3.50389 28.7453 5.61081 25.8574 7.55668 22.8936C9.84767 19.4045 12.0105 15.8508 14.2292 12.3252C14.4165 12.0302 14.6072 11.7381 14.7945 11.4459C18.0782 11.5161 21.2829 11.6762 24.56 12.4151C25.3324 15.5923 26.0556 18.764 26.8872 21.916C28.0343 26.2563 29.2505 30.5825 30.47 34.9088C30.6869 35.6757 31.0682 36.4061 31.3377 37.1646C31.5382 37.7293 31.6763 38.3108 31.8406 38.8754C29.0533 38.3557 26.3613 37.8529 23.6693 37.35C23.5838 37.3332 23.4918 37.3388 23.4063 37.3304C21.4144 37.1618 20.2673 36.2151 19.7249 34.5801C19.3765 33.5351 18.8145 32.5406 18.3313 31.4843C16.9606 31.3017 15.5735 31.1191 14.1536 30.9309C13.1083 32.3861 12.0992 33.7935 11.0606 35.2431C11.2808 35.4004 11.4714 35.5381 11.7377 35.7291C11.5372 35.7825 11.3794 35.8724 11.2381 35.8555C9.6209 35.6617 7.99715 35.4847 6.38984 35.2403C4.87456 35.0071 3.37242 34.7065 1.87029 34.4172C1.35424 34.3188 0.811881 34.1981 0.746142 33.6222C3.56634 34.0969 6.38324 34.566 9.20015 35.038C10.1435 35.1953 10.3111 35.1223 10.8075 34.4397C11.4813 33.507 12.1551 32.5743 12.875 31.6641C13.2201 31.2259 13.5783 30.8213 13.0557 30.0769C15.327 30.4477 17.3255 30.7764 19.1662 31.077C19.5376 33.0631 20.7176 34.6447 21.0529 36.2938C24.4516 36.9034 27.6563 37.4764 30.9367 38.0636C30.4798 36.8163 29.9967 35.6785 29.6482 34.5127C28.7575 31.5124 27.8733 28.5121 27.0877 25.4893C26.2265 22.1744 25.2108 18.8848 24.7605 15.4968C24.6783 14.8704 24.3464 14.2692 24.1229 13.6568C23.8731 12.9713 23.3735 12.6005 22.486 12.5808C21.8713 12.5668 21.2632 12.4263 20.6486 12.3729C18.8112 12.2212 16.977 11.8898 15.1561 12.1679C14.6236 13.0078 14.0878 13.7944 13.6178 14.6063C10.4426 20.1068 6.69552 25.3292 3.06345 30.6078C2.35019 31.6444 1.53828 32.6277 0.769133 33.6362V33.6362Z" fill="white" fill-opacity="0.5"/>
<path d="M33.1208 26.4621C32.2987 26.5148 31.5002 26.5675 30.6444 26.623C30.3917 25.4884 29.9908 24.3872 30.3917 23.3137H33.1579C33.2455 22.3955 33.3264 21.5578 33.4106 20.684C34.8392 20.6591 36.1397 20.3872 37.447 20.8948V22.7645C38.6532 22.8699 39.8022 22.9697 41.0151 23.0751V25.6604C39.8965 25.727 38.8352 25.788 37.6795 25.8546C37.5784 26.573 37.447 27.2249 37.41 27.8823C37.3763 28.4509 37.0461 28.6784 36.3958 28.7062C35.4693 28.745 34.5427 28.806 33.5386 28.8615C33.3904 28.0154 33.2623 27.2887 33.1208 26.4676V26.4621ZM31.0689 25.9766H33.9632C33.9632 26.5591 33.9396 27.0418 33.9699 27.5217C34.007 28.1042 34.29 28.3289 34.9942 28.2818C35.6175 28.2401 36.2341 28.1153 37.009 28.0016V25.3775C38.1782 25.2943 39.1923 25.2221 40.2604 25.1472V23.4635H36.7698C36.726 22.6396 36.6889 21.9212 36.6451 21.1362C35.6984 21.1806 34.9032 21.2166 34.0373 21.2554V23.6632C33.0299 23.8074 32.0629 23.9434 31.0689 24.0848V25.9766V25.9766Z" fill="white" fill-opacity="0.5"/>
<path d="M19.0028 18.4121C19.5311 21.0042 20.0011 23.3276 20.5079 25.8138C18.0721 25.4636 15.7652 25.0863 13.4922 24.3427C14.5826 24.3779 14.9389 23.6831 15.3843 23.0507C16.2997 21.7479 17.2427 20.4613 18.1888 19.1775C18.3393 18.974 18.5697 18.8166 19.0028 18.4121V18.4121ZM15.243 24.3399C16.8372 24.5245 18.1458 24.9479 19.6878 25.0483C19.3314 23.2244 19.0059 21.5606 18.628 19.6227C17.2581 21.2105 16.3734 22.744 15.243 24.3399Z" fill="white" fill-opacity="0.5"/>
<path d="M111.71 20.2311C112.065 20.4976 112.381 20.8106 112.782 21.0189C116.512 22.946 119.472 25.5217 122.183 28.2955C124.601 30.7673 126.531 33.4714 127.762 36.4708C128.241 37.6381 128.577 38.8429 129.019 40.1427C130.284 38.8019 131.2 37.2606 133.237 36.5497C132.109 37.8085 130.829 38.9983 129.895 40.3441C128.958 41.6924 128.362 43.1976 127.55 44.7627C126.101 42.5073 125.242 39.9444 122.005 38.8096C123.706 38.5057 124.631 39.2302 127.478 42.9112C128.019 42.2104 128.458 41.5742 128.291 40.7183C127.365 35.9092 124.707 31.7579 120.958 28.0169C118.767 25.8313 116.28 23.8722 113.559 22.1366C110.796 20.3722 107.875 18.7995 104.694 17.5136C100.365 15.7595 95.8922 14.376 91.1665 13.5465C85.5769 12.5673 79.9427 12.3451 74.3352 13.3512C68.0821 14.4719 62.6189 16.8075 58.1932 20.6125C57.9223 20.845 57.6239 21.0567 57.3224 21.2669C57.2595 21.309 57.1369 21.293 56.9787 21.3119C56.653 20.9727 56.9893 20.7344 57.2282 20.5208C59.5767 18.4144 62.3212 16.7141 65.4031 15.3659C71.723 12.597 78.5096 11.783 85.5982 12.2409C91.2523 12.6065 96.5974 13.9193 101.804 15.654C102.718 15.9586 103.534 16.446 104.411 16.8202C104.788 16.9812 105.218 17.0605 105.619 17.1779L111.706 20.2361L111.71 20.2311Z" fill="white" fill-opacity="0.5"/>
<path d="M156.767 91.6114C156.185 95.9489 156.866 99.868 158.442 103.706C156.06 101.106 155.452 98.1219 155.405 94.9413C154.625 95.1335 154.448 95.5561 154.318 96.0812C153.382 99.9192 150.865 103.087 147.828 105.981C143.299 110.302 137.542 113.013 130.803 114.294C126.123 115.186 121.39 115.395 116.632 114.738C116.403 114.708 116.201 114.545 115.842 114.375C116.518 113.756 117.225 113.918 117.865 113.99C124.713 114.755 131.292 113.879 137.469 111.433C143.928 108.88 148.629 104.79 151.77 99.5008C152.196 98.7793 152.597 98.045 153.002 97.3107C153.023 97.2723 152.987 97.2083 152.961 97.0461C151.656 97.712 150.434 98.4122 149.123 98.9843C147.839 99.5435 146.57 100.286 144.703 99.932C147.105 98.7708 149.487 97.9255 151.39 96.6149C153.32 95.2871 154.776 93.5026 156.767 91.6071V91.6114Z" fill="#FAFAFA" fill-opacity="0.5"/>
</svg>
