<svg width="20" height="20" viewBox="0 0 20 20" fill="none" xmlns="http://www.w3.org/2000/svg">
<path d="M18.3268 0.433486H1.65386C1.46644 0.430899 1.28034 0.465035 1.1062 0.533944C0.932051 0.602853 0.773266 0.705186 0.638912 0.835098C0.504558 0.96501 0.397266 1.11996 0.323163 1.29109C0.249061 1.46222 0.209599 1.64619 0.207031 1.83248V18.6009C0.209599 18.7872 0.249061 18.9711 0.323163 19.1423C0.397266 19.3134 0.504558 19.4683 0.638912 19.5982C0.773266 19.7282 0.932051 19.8305 1.1062 19.8994C1.28034 19.9683 1.46644 20.0024 1.65386 19.9999H18.3268C18.5143 20.0024 18.7004 19.9683 18.8745 19.8994C19.0487 19.8305 19.2074 19.7282 19.3418 19.5982C19.4762 19.4683 19.5834 19.3134 19.6575 19.1423C19.7316 18.9711 19.7711 18.7872 19.7737 18.6009V1.83248C19.7711 1.64619 19.7316 1.46222 19.6575 1.29109C19.5834 1.11996 19.4762 0.96501 19.3418 0.835098C19.2074 0.705186 19.0487 0.602853 18.8745 0.533944C18.7004 0.465035 18.5143 0.430899 18.3268 0.433486ZM6.14198 16.8105H3.18927V8.00567H6.14198V16.8105ZM4.66563 6.77299C4.25841 6.77299 3.86787 6.6122 3.57993 6.32598C3.29198 6.03977 3.13022 5.65158 3.13022 5.24681C3.13022 4.84205 3.29198 4.45386 3.57993 4.16764C3.86787 3.88143 4.25841 3.72064 4.66563 3.72064C4.88186 3.69626 5.10083 3.71756 5.30821 3.78314C5.51559 3.84871 5.7067 3.95709 5.86901 4.10117C6.03133 4.24524 6.1612 4.42178 6.25012 4.6192C6.33905 4.81663 6.38501 5.0305 6.38501 5.24681C6.38501 5.46312 6.33905 5.67699 6.25012 5.87442C6.1612 6.07185 6.03133 6.24838 5.86901 6.39246C5.7067 6.53654 5.51559 6.64492 5.30821 6.71049C5.10083 6.77607 4.88186 6.79737 4.66563 6.77299ZM16.7914 16.8105H13.8387V12.0853C13.8387 10.9015 13.4155 10.1286 12.3427 10.1286C12.0107 10.131 11.6874 10.2346 11.4164 10.4252C11.1453 10.6159 10.9396 10.8845 10.827 11.195C10.7499 11.4249 10.7166 11.6671 10.7285 11.9092V16.8008H7.77582C7.77582 16.8008 7.77582 8.79811 7.77582 7.99589H10.7285V9.23835C10.9968 8.77571 11.3869 8.39457 11.8569 8.13599C12.3269 7.8774 12.859 7.75116 13.3958 7.77088C15.3643 7.77088 16.7914 9.03291 16.7914 11.7429V16.8105Z" fill="white"/>
</svg>
