<svg width="12" height="17" viewBox="0 0 12 17" fill="none" xmlns="http://www.w3.org/2000/svg">
<path d="M10.5287 7.54126L3.71803 0.905159C3.56871 0.758463 3.39105 0.642027 3.19531 0.562568C2.99957 0.483109 2.78962 0.4422 2.57757 0.4422C2.36552 0.4422 2.15557 0.483109 1.95983 0.562568C1.76409 0.642027 1.58644 0.758463 1.43711 0.905159C1.13794 1.1984 0.970016 1.59508 0.970016 2.00857C0.970016 2.42205 1.13794 2.81873 1.43711 3.11197L7.12335 8.65249L1.43711 14.193C1.13794 14.4863 0.970016 14.8829 0.970016 15.2964C0.970016 15.7099 1.13794 16.1066 1.43711 16.3998C1.5872 16.5449 1.7652 16.6596 1.96091 16.7375C2.15661 16.8154 2.36617 16.8549 2.57757 16.8537C2.78897 16.8549 2.99853 16.8154 3.19423 16.7375C3.38994 16.6596 3.56794 16.5449 3.71803 16.3998L10.5287 9.76372C10.6792 9.61823 10.7987 9.44512 10.8803 9.2544C10.9618 9.06367 11.0038 8.85911 11.0038 8.65249C11.0038 8.44588 10.9618 8.24131 10.8803 8.05058C10.7987 7.85986 10.6792 7.68676 10.5287 7.54126Z" fill="white" fill-opacity="0.6"/>
</svg>
