<svg width="11" height="17" viewBox="0 0 11 17" fill="none" xmlns="http://www.w3.org/2000/svg">
<path d="M10.5245 7.10225L3.71384 0.463167C3.56451 0.316405 3.38685 0.199917 3.19111 0.120422C2.99537 0.0409275 2.78542 0 2.57337 0C2.36133 0 2.15138 0.0409275 1.95564 0.120422C1.7599 0.199917 1.58224 0.316405 1.43291 0.463167C1.13374 0.756544 0.96582 1.1534 0.96582 1.56707C0.96582 1.98074 1.13374 2.3776 1.43291 2.67098L7.11915 8.21399L1.43291 13.757C1.13374 14.0504 0.96582 14.4472 0.96582 14.8609C0.96582 15.2746 1.13374 15.6714 1.43291 15.9648C1.58301 16.1099 1.76101 16.2247 1.95671 16.3027C2.15242 16.3806 2.36198 16.4201 2.57337 16.4189C2.78477 16.4201 2.99433 16.3806 3.19004 16.3027C3.38574 16.2247 3.56374 16.1099 3.71384 15.9648L10.5245 9.32572C10.675 9.18016 10.7945 9.00697 10.8761 8.81616C10.9576 8.62535 10.9996 8.42069 10.9996 8.21399C10.9996 8.00728 10.9576 7.80262 10.8761 7.61181C10.7945 7.421 10.675 7.24782 10.5245 7.10225Z" fill="white"/>
</svg>
