<svg width="119" height="144" viewBox="0 0 119 144" fill="none" xmlns="http://www.w3.org/2000/svg">
<path d="M47.0233 21.6466C42.4468 20.6596 37.9282 20.014 33.7705 18.5203C33.9131 17.4019 34.635 17.0266 35.348 16.6438C37.1661 15.668 38.9888 14.6922 40.8024 13.7127C41.0564 13.5776 41.2659 13.3861 41.5288 13.2623C43.8594 12.1777 44.2114 10.4438 43.7792 8.4509C43.4227 6.81833 43.0484 5.18575 42.683 3.55317C42.6607 3.45559 42.625 3.35802 42.6027 3.25669C42.4379 2.4723 42.478 1.62411 43.2578 1.17374C44.1401 0.66333 45.1027 1.0499 45.9182 1.55281C47.7541 2.68623 49.6035 3.80088 51.4216 4.95682C53.3823 6.20283 55.3164 6.24787 57.4197 5.14447C59.5542 4.02231 61.7868 3.03901 63.9748 1.99942C64.1842 1.89809 64.3937 1.80051 64.612 1.71794C65.9311 1.19627 66.6753 1.51152 66.5238 2.70499C66.3544 4.04483 65.9222 5.36965 65.5211 6.68321C65.1646 7.85416 64.768 9.02512 64.2555 10.151C63.6495 11.4871 64.1174 12.5455 65.2716 13.4274C67.5398 15.1538 69.8481 16.8427 72.1475 18.5428C72.3257 18.6742 72.5441 18.7718 72.7179 18.9106C73.9166 19.8564 73.7339 21.0273 72.1965 21.5453C71.3275 21.838 70.3338 22.0219 69.4025 22.0031C67.4328 21.9656 65.4632 21.7667 63.498 21.6278C63.3197 21.6166 63.1504 21.5453 62.9722 21.5228C60.0266 21.1587 59.7637 21.2826 58.3332 23.5419C56.8404 25.9026 55.3297 28.252 53.8102 30.6014C53.5829 30.9542 53.3155 31.3069 52.9768 31.5847C52.3797 32.0763 51.7425 32.0275 51.3459 31.412C50.9492 30.7965 50.6819 30.121 50.4011 29.4567C49.4029 27.081 48.427 24.6978 47.4288 22.3222C47.3308 22.0857 47.157 21.8718 47.0144 21.6429L47.0233 21.6466ZM65.7885 2.46104C65.6325 2.40474 65.481 2.3522 65.325 2.2959C64.9685 2.46104 64.6076 2.62243 64.2511 2.78756C61.7378 3.95851 59.2245 5.13696 56.7067 6.30416C55.2183 6.99847 53.6988 6.99472 52.2505 6.26663C51.0206 5.64738 49.853 4.9418 48.6721 4.25499C47.3932 3.50814 46.1811 2.67872 44.8531 1.99942C43.9619 1.5453 43.4494 1.84179 43.5207 2.71249C43.592 3.56068 43.8639 4.39761 43.9975 5.2458C44.2649 6.94218 44.5546 8.6348 44.7195 10.3387C44.8398 11.5772 44.256 12.598 42.9771 13.3073C41.0297 14.392 39.1046 15.4991 37.1661 16.5988C36.4353 17.0153 35.7045 17.4282 34.7108 17.9949C35.6822 18.2951 36.3284 18.5391 37.0013 18.693C39.7686 19.3235 42.5225 19.9915 45.3166 20.5169C47.2506 20.8772 48.3067 21.8643 48.9083 23.3542C49.755 25.4522 50.6195 27.5464 51.4706 29.6406C51.6533 30.0947 51.7113 30.6126 52.4421 30.8904C52.7362 30.5226 53.0348 30.2148 53.262 29.8695C54.0731 28.6348 54.8707 27.3925 55.6595 26.1465C56.4482 24.9005 57.2236 23.6507 57.9945 22.3972C58.712 21.2338 59.679 20.4944 61.3991 20.6933C62.9989 20.8772 64.6165 20.9748 66.2296 21.0611C67.6601 21.1362 69.1084 21.2225 70.5299 21.1399C71.1671 21.1024 72.045 20.7834 72.3258 20.3631C72.7758 19.6913 71.8044 19.3385 71.3053 18.9632C69.3802 17.522 67.4417 16.0883 65.4498 14.711C63.3064 13.2285 62.5221 11.5059 63.5648 9.23153C64.2332 7.7791 64.7101 6.26287 65.2181 4.76165C65.4721 4.0148 65.6013 3.23417 65.7885 2.46855V2.46104Z" fill="white" fill-opacity="0.5"/>
<path d="M104.858 81.9073C107.532 80.5297 109.93 79.3031 112.309 78.0577C112.947 77.7256 113.513 77.8124 113.794 78.3407C115.634 81.794 117.488 85.2473 118.522 88.961C118.535 89.0063 118.518 89.0629 118.509 89.1158C117.862 89.8291 117.127 89.6781 116.365 89.2629C113.548 87.7269 110.808 86.0776 107.897 84.685C103.851 82.7489 101.266 79.6202 98.387 76.7292C95.6506 73.9779 93.0212 71.1511 90.3873 68.3281C89.6342 67.5204 88.8676 66.6826 88.7295 65.573C94.1131 71.0605 99.3006 76.6613 104.854 81.9073H104.858ZM112.336 78.937C110.072 80.0693 107.782 80.9637 105.963 82.613C108.223 83.8886 110.34 85.085 112.448 86.2739C113.392 85.5115 114.199 84.8548 115.006 84.2019C114.114 82.4432 113.272 80.7788 112.336 78.9333V78.937ZM116.432 88.4176C116.423 87.0513 115.973 86.0738 115.233 84.9718C114.556 85.6398 114.003 86.1833 113.334 86.8438C114.462 87.4174 115.353 87.8703 116.432 88.4176Z" fill="white" fill-opacity="0.5"/>
<path d="M88.9951 65.1834C90.5779 63.4698 93.097 62.6549 94.9964 60.8614C94.5862 60.5225 94.2206 60.2141 93.9129 59.9628C92.0047 61.147 90.2926 62.1675 88.6429 63.2528C87.7824 63.8202 86.8327 64.4142 87.2741 65.8955C84.6747 64.0677 82.4499 62.4722 82.1378 59.7457C81.9461 58.0893 82.6951 56.7337 84.3002 55.7703C85.9499 54.7802 87.7066 54.5898 89.5524 55.3743C91.7059 56.2843 93.2219 57.8189 94.7779 59.304C95.2817 59.7838 95.5805 60.4692 96.5435 60.4654C96.7219 60.4654 96.9314 60.6825 97.0741 60.8348C101.903 65.983 106.749 71.1199 110.749 76.786C110.945 77.064 111.079 77.3763 111.244 77.6695C111.141 77.7342 111.038 77.7951 110.931 77.8599C110.521 77.46 110.058 77.0945 109.705 76.6604C107.846 74.3985 106.094 72.0681 104.159 69.8595C101.898 67.2815 99.5174 64.7836 97.1276 62.2932C96.1066 61.2308 95.9773 61.307 94.711 62.1942C93.1817 63.2604 91.5989 64.2733 90.0206 65.2938C89.8155 65.4271 89.5168 65.4499 89.2626 65.5261C89.1735 65.4119 89.0843 65.3014 88.9996 65.191L88.9951 65.1834ZM93.1416 59.0222C91.7059 57.5295 90.5779 56.707 89.2448 56.132C87.5639 55.4085 85.9097 55.5684 84.4295 56.726C83.2034 57.6818 82.6907 58.8547 83.19 60.3207C83.7072 61.8515 84.6881 63.051 86.2664 64.041C88.3085 62.1104 91.2824 61.2079 93.1416 59.0222Z" fill="white" fill-opacity="0.5"/>
<path d="M8.22346 14.6639C6.23362 16.1494 6.393 18.345 5.15902 20.1046C4.28477 19.1785 5.25463 18.4685 5.09071 17.608C4.22556 17.9862 3.46515 18.3798 2.64553 18.6614C1.83502 18.9393 0.965323 19.0975 0 19.136C3.62452 17.635 6.84379 15.8369 8.29177 12.1519C8.59685 12.7692 8.83361 13.105 8.92923 13.4638C9.71242 16.354 10.6504 19.1939 12.5082 21.7484C12.5902 21.8603 12.5538 22.0378 12.5811 22.277C11.675 22.4236 11.3699 21.895 11.1331 21.3934C10.2588 19.5181 9.42103 17.6273 8.5832 15.7404C8.4557 15.4549 8.38283 15.1539 8.22346 14.6639Z" fill="white" fill-opacity="0.5"/>
<path d="M94.5086 93.8901C95.9882 96.4456 98.8654 97.6372 101.311 99.3843C100.254 99.4993 99.6763 99.3077 97.9293 98.1966C96.9587 97.5759 96.0443 96.8824 94.9658 96.1238C94.4094 97.8863 94.9917 99.7675 93.7753 101.365C93.5682 101.158 93.3569 101.043 93.3655 100.944C93.62 98.6219 93.8961 96.3039 94.1678 93.982C94.28 93.9514 94.3921 93.9169 94.5043 93.8862L94.5086 93.8901Z" fill="white" fill-opacity="0.5"/>
<path d="M59.5947 57.5598C60.9113 58.6 61.3459 59.8594 61.5782 61.172C61.6126 61.3772 61.3502 61.6177 60.907 61.8335C60.4682 60.4078 60.0336 58.9821 59.5947 57.5598Z" fill="white" fill-opacity="0.5"/>
<path d="M97.3062 102.434C97.3643 104.048 97.3845 105.655 96.985 107.242C96.8435 107.149 96.6867 107.1 96.6842 107.036C96.626 105.429 96.8738 103.907 97.3062 102.434Z" fill="white" fill-opacity="0.5"/>
<path d="M91.3779 114.72C91.7071 113.236 93.1882 112.372 94.6887 111.515C93.9869 112.789 92.9075 113.873 91.3779 114.72Z" fill="white" fill-opacity="0.5"/>
<path d="M20.5273 39.9308C22.4095 40.0781 24.1219 40.589 25.8246 41.5675C25.5336 41.81 25.3201 42.0958 25.2086 42.0655C23.4961 41.6282 21.9293 40.9267 20.5273 39.9308Z" fill="white" fill-opacity="0.5"/>
<path d="M86.7394 116.712C85.529 117.606 84.2607 118.361 82.7405 118.459C82.5339 118.472 82.3191 118.343 82.1084 118.276C82.1952 118.11 82.2778 117.945 82.3645 117.784C83.7815 117.297 85.1985 116.81 86.6155 116.323C86.6568 116.453 86.6981 116.582 86.7435 116.712H86.7394Z" fill="white" fill-opacity="0.5"/>
<path d="M41.0541 46.3337C39.201 46.4029 37.2945 46.0006 35.7568 45.2729C37.61 45.4677 39.3254 45.5445 41.0541 46.3337Z" fill="white" fill-opacity="0.5"/>
<path d="M50.3242 50.0809C52.2637 50.5004 53.3163 51.0812 54.2972 52.1783C53.2312 52.384 52.08 51.7991 50.3242 50.0809Z" fill="white" fill-opacity="0.5"/>
<path d="M5.94304 29.7808C4.63916 28.9119 3.85451 27.9132 3.98721 26.5756C5.1007 27.138 6.09881 28.6307 5.94304 29.7808Z" fill="white" fill-opacity="0.5"/>
<path d="M10.5947 34.0581C11.4744 34.907 12.354 35.7595 13.2384 36.6119C13.2862 36.5976 12.9755 36.7738 12.7986 36.7127C11.7086 36.3458 10.59 35.1444 10.5947 34.0545V34.0581Z" fill="white" fill-opacity="0.5"/>
<path d="M74.1621 119.528C74.8604 118.492 75.5588 118.313 77.4729 118.557C76.5987 119.296 75.5236 119.342 74.1621 119.528Z" fill="white" fill-opacity="0.5"/>
<path d="M60.2021 129.468C60.7339 130.514 61.2286 131.426 61.6646 132.354C62.0202 133.108 61.8563 133.438 60.9627 133.798C60.5206 133.975 60.0352 134.101 59.5559 134.201C57.0236 134.726 54.4881 135.229 51.9558 135.751C51.2724 135.891 50.5427 135.992 49.9429 136.263C49.4389 136.49 48.9905 136.889 48.703 137.295C48.3598 137.783 48.7617 138.327 49.4822 138.386C50.0449 138.43 50.6664 138.406 51.1982 138.26C54.1418 137.45 57.073 136.608 59.9949 135.746C60.5731 135.576 61.0988 135.288 61.6244 135.019C62.2428 134.701 62.3819 134.47 62.5025 133.768C63.1271 134.078 63.1055 134.477 62.7252 134.842C62.3851 135.164 61.9645 135.46 61.51 135.674C59.2374 136.741 56.7453 137.401 54.2531 138.046C52.9545 138.384 51.6126 138.615 50.3139 138.95C50.0542 139.017 49.8965 139.337 49.6894 139.541C49.7296 139.613 49.7667 139.684 49.8069 139.758C50.2335 139.758 50.6819 139.827 51.0838 139.746C53.7399 139.209 56.3866 138.65 59.0271 138.071C59.5002 137.967 59.9424 137.756 60.3783 137.563C61.5904 137.034 61.8068 136.817 62.2799 135.657C62.3727 135.913 62.4593 136.036 62.4562 136.16C62.4469 136.714 62.4314 137.241 62.6479 137.802C62.92 138.502 62.3789 139.09 61.6924 139.514C61.2812 139.768 61.1451 140.024 61.1513 140.433C61.173 142.25 59.6981 143.514 57.3729 143.701C56.8349 143.743 56.2907 143.733 55.7496 143.721C53.9439 143.679 53.0101 143.095 52.5278 141.726C49.7141 141.499 48.6783 140.682 49.139 139.051C47.7136 138.063 47.6177 137.778 48.4711 136.428C48.6906 136.083 48.6721 135.834 48.4649 135.509C47.7909 134.445 47.1446 133.371 46.517 132.288C46.2944 131.904 46.0563 131.62 45.4595 131.559C42.3026 131.239 39.8197 129.98 38.0635 127.906C34.9931 124.278 33.982 120.32 36.1804 116.224C38.2799 112.316 42.1697 109.944 47.4971 109.23C51.8507 108.644 55.8733 109.424 59.4105 111.493C62.9725 113.577 64.7628 116.463 64.9792 119.993C65.1616 122.936 64.1444 125.554 61.8841 127.872C61.3523 128.419 60.7679 128.936 60.2021 129.47V129.468ZM55.2024 120.857C55.4652 120.709 55.66 120.586 55.8702 120.485C57.005 119.934 57.7873 120.081 58.5077 120.958C59.157 121.751 59.0581 122.564 58.4582 123.296C57.71 124.204 56.8628 125.071 55.9877 125.906C55.2518 126.608 54.8344 127.352 55.0076 128.273C55.1127 128.83 55.1745 129.391 55.3291 129.938C55.7373 131.369 56.1825 132.795 56.6278 134.266C58.2109 133.908 59.862 133.837 61.2874 132.945C60.8205 132.039 60.434 131.13 59.896 130.283C59.4569 129.588 59.7321 129.074 60.2608 128.559C60.6814 128.15 61.1575 127.776 61.5564 127.352C64.2217 124.522 64.9916 121.328 64.0022 117.936C62.4747 112.71 56.9957 109.868 50.7159 109.587C46.2603 109.387 42.485 110.629 39.4239 113.234C37.343 115.008 36.0011 117.025 35.8094 119.505C35.6486 121.567 35.9857 123.559 37.0153 125.431C38.1903 127.564 39.8816 129.414 42.6891 130.359C43.9321 130.778 45.2802 130.997 46.6438 131.322C47.5064 132.758 48.4124 134.268 49.34 135.81C50.5922 135.517 51.6868 135.261 52.9205 134.975C52.0671 133.224 51.2786 131.519 50.4129 129.84C49.5842 128.234 48.267 126.948 46.3531 126.057C45.6419 125.727 44.9617 125.32 44.3681 124.867C43.02 123.832 43.19 122.793 44.7638 122.017C46.0934 121.365 47.6486 121.273 49.1081 120.966C49.7481 120.83 50.4933 121.025 51.2137 121.072C52.769 119.719 53.4492 119.67 55.2085 120.85L55.2024 120.857ZM56.0186 134.374C55.4992 132.583 55.0447 130.975 54.5592 129.372C54.0769 127.778 54.3706 126.377 55.9042 125.177C56.5814 124.648 57.1565 124.022 57.6852 123.392C58.1799 122.803 58.4551 122.136 58.0748 121.416C57.7656 120.83 57.2431 120.604 56.6123 120.766C55.9104 120.948 55.6291 121.37 55.796 121.995C55.83 122.123 55.9599 122.288 55.9011 122.369C55.7311 122.608 55.5301 122.887 55.2487 122.998C55.122 123.049 54.6613 122.783 54.553 122.589C54.4386 122.384 54.4881 122.071 54.5963 121.847C54.8282 121.374 54.5654 121.081 54.1356 120.828C53.2606 120.306 52.4845 120.559 52.0022 121.51C52.299 121.788 52.6917 122.032 52.8555 122.352C52.9916 122.616 52.9916 123.049 52.7968 123.256C52.5989 123.468 52.0454 123.623 51.727 123.559C51.4239 123.5 51.1086 123.15 51.0035 122.877C50.8612 122.515 50.9169 122.104 50.886 121.702C50.0913 121.382 49.3554 121.212 48.4989 121.616C48.6505 121.773 48.7525 121.872 48.8422 121.978C49.0957 122.276 49.4173 122.554 49.578 122.882C49.8347 123.404 49.5626 123.85 49.0524 124.207C48.536 124.569 47.8187 124.68 47.3209 124.468C46.752 124.229 46.6685 123.813 46.7149 123.362C46.7582 122.914 46.8138 122.468 46.8664 121.983C45.9944 122.007 45.3575 122.286 44.7824 122.68C43.9073 123.278 43.8455 123.808 44.702 124.429C45.3142 124.872 46.0037 125.254 46.7087 125.603C48.5206 126.507 49.9213 127.707 50.7839 129.261C51.4704 130.5 52.0609 131.771 52.6731 133.034C52.97 133.642 53.2204 134.266 53.5172 134.933C54.4015 134.736 55.1838 134.561 56.0186 134.376V134.374ZM50.0542 140.435C50.5922 141.172 51.4425 141.189 52.2464 141.113C54.8004 140.876 57.3482 140.566 59.7537 139.807C60.4278 139.595 61.0401 139.216 61.6059 138.839C62.1377 138.485 62.2706 137.985 62.0542 137.384C58.3809 139.263 54.2222 139.645 50.0542 140.433V140.435ZM53.1833 141.686C53.3379 142.415 53.8172 142.768 54.4448 142.994C55.9785 143.553 58.5231 143.226 59.7197 142.275C60.4309 141.709 60.9071 141.031 60.6566 140.255C58.1428 140.736 55.7002 141.204 53.1864 141.686H53.1833ZM47.7661 122.128C47.2869 122.741 47.2683 123.323 47.4508 123.941C48.165 124.116 48.6597 123.975 48.9133 123.473C49.1575 122.985 48.7308 122.483 47.7631 122.128H47.7661ZM51.6651 122.099C51.628 122.399 51.5569 122.539 51.6095 122.64C51.693 122.801 51.8414 122.941 51.9929 123.067C52.0207 123.089 52.2866 122.995 52.2866 122.958C52.2804 122.783 52.2526 122.599 52.166 122.441C52.1135 122.342 51.9434 122.283 51.6651 122.099Z" fill="white" fill-opacity="0.5"/>
<path d="M78 109.852C76.3334 110.65 74.8195 111.349 73.3355 112.092C71.8634 112.827 70.7473 113.969 69 114.688C70.5828 112.658 76.0552 109.712 78 109.852Z" fill="white" fill-opacity="0.5"/>
<path d="M45.4872 97.7456C46.008 100.24 46.504 102.623 47 105.007C46.3428 104.568 46.2405 103.979 46.0948 103.422C45.7228 102 45.3972 100.568 45.081 99.1357C44.9787 98.665 44.864 98.1646 45.4841 97.7456H45.4872Z" fill="white" fill-opacity="0.5"/>
<path d="M69 122.761C70.3714 122.671 76.1887 123.758 77 124.235C76.4334 124.441 76.4366 124.438 74.4052 124.024C73.4941 123.839 72.5863 123.642 71.6623 123.498C70.7416 123.353 69.8338 123.213 69 122.761Z" fill="white" fill-opacity="0.5"/>
<path d="M27.9147 117.915C25.626 117.545 23.3343 117.174 21 116.795C21.0518 116.234 21.5272 116.282 21.8899 116.325C23.0205 116.458 24.148 116.634 25.2725 116.819C25.7936 116.904 26.3148 117.026 26.8206 117.178C27.226 117.299 27.6069 117.493 28 117.657C27.9726 117.742 27.9451 117.827 27.9147 117.912V117.915Z" fill="white" fill-opacity="0.5"/>
<path d="M60.0034 105.813C60.8561 103.943 63.015 102.27 65 101.779C64.9591 101.954 64.9932 102.166 64.8908 102.208C63.2878 102.866 62.2305 103.904 61.146 104.929C60.8083 105.247 60.3854 105.52 60 105.811L60.0034 105.813Z" fill="white" fill-opacity="0.5"/>
<path d="M32 127.596C30.7543 128.917 27.9795 130.674 27 130.823C27.2833 130.232 30.2218 128.297 32 127.596Z" fill="white" fill-opacity="0.5"/>
<path d="M30 105.813C31.4847 105.833 34.2981 107.199 35 108.234C33.3998 107.458 31.8024 106.685 30 105.813Z" fill="white" fill-opacity="0.5"/>
</svg>
