<svg width="1439" height="140" viewBox="0 0 1439 140" fill="none" xmlns="http://www.w3.org/2000/svg">
<path d="M30 0H68.3063C77.8253 0 86.7795 4.51758 92.4357 12.1739L177.876 127.826C183.533 135.482 192.487 140 202.006 140H710H1235.33C1244.38 140 1252.94 135.916 1258.64 128.885L1354.05 11.1152C1359.74 4.08429 1368.31 0 1377.36 0H1409C1425.57 0 1439 13.4315 1439 30V110C1439 126.569 1425.57 140 1409 140H1235.33H710H202.006H30C13.4314 140 0 126.569 0 110V30C0 13.4315 13.4315 0 30 0Z" fill="#EAEEF2"/>
</svg>
